<?xml version="1.0" encoding="utf-8"?>

<!-- Uploaded to: SVG Repo, www.svgrepo.com, Generator: SVG Repo Mixer Tools -->
<svg version="1.1" id="Icons" xmlns="http://www.w3.org/2000/svg" xmlns:xlink="http://www.w3.org/1999/xlink" 
	 viewBox="0 0 32 32" xml:space="preserve">
<style type="text/css">
	.st0{fill:none;stroke:#000000;stroke-width:2;stroke-linecap:round;stroke-linejoin:round;stroke-miterlimit:10;}
	.st1{fill:none;stroke:#000000;stroke-width:2;stroke-linejoin:round;stroke-miterlimit:10;}
</style>
<path class="st0" d="M16,23.6c1.1,0,2.1,0.2,2.9,0.4c0-0.1,0.1-0.3,0.1-0.4c0-1.4-1.3-2.6-3-2.6s-3,1.1-3,2.6c0,0.2,0,0.3,0.1,0.4
	C13.9,23.7,14.9,23.6,16,23.6z"/>
<path class="st0" d="M13.7,19c-0.3-0.6-1-1-1.7-1s-1.4,0.4-1.7,1"/>
<path class="st0" d="M21.7,19c-0.3-0.6-1-1-1.7-1s-1.4,0.4-1.7,1"/>
<path class="st0" d="M16,7L9.2,2.9l0,0c-1.6,2.5-1.6,5.7,0,8.1l0,0l13.5-8.1l0,0c1.6,2.5,1.6,5.7,0,8.1l0,0L16,7"/>
<path class="st0" d="M8.3,9.1c-1.4,1.3-2.4,3-2.9,4.9C4,14.3,3,15.5,3,17c0,1.5,1,2.7,2.4,2.9C6.7,24.6,10.9,28,16,28
	s9.3-3.4,10.6-8.1C28,19.7,29,18.5,29,17c0-1.5-1-2.7-2.4-2.9c-0.5-1.9-1.5-3.6-2.9-4.9"/>
<path class="st0" d="M20.3,9.6c0,0.1,0.1,0.1,0.1,0.2c0.8,1.3,0.4,3.1-0.9,3.9c-1.1,0.7-2.5,0.3-3.2-0.8"/>
<path class="st0" d="M15.9,7.3c0.1,0,0.1,0.1,0.2,0.1c1.3,1,1.7,2.9,0.8,4.3c-0.7,1.1-2.1,1.4-3.2,0.6"/>
</svg>